<?xml version="1.0" encoding="UTF-8"?>
<svg xmlns="http://www.w3.org/2000/svg" xmlns:xlink="http://www.w3.org/1999/xlink" width="612pt" height="792pt" viewBox="0 0 612 792">
<path fill-rule="nonzero" fill="rgb(11.579895%, 20.840454%, 36.49292%)" fill-opacity="1" d="M 87.957031 371.074219 L 92.234375 348.964844 L 186.789062 348.964844 L 182.511719 371.074219 L 151.707031 371.074219 L 137.585938 443.949219 L 104.503906 443.949219 L 118.617188 371.074219 Z M 87.957031 371.074219 "/>
<path fill-rule="nonzero" fill="rgb(11.579895%, 20.840454%, 36.49292%)" fill-opacity="1" d="M 214.460938 388.613281 C 211.035156 388.613281 208.230469 389.472656 206.042969 391.183594 C 203.855469 392.894531 202.433594 395.316406 201.765625 398.457031 L 224.15625 398.457031 C 224.347656 397.316406 224.441406 396.460938 224.441406 395.886719 C 224.441406 391.039062 221.113281 388.613281 214.460938 388.613281 M 214.886719 372.929688 C 226.199219 372.929688 234.734375 375.042969 240.488281 379.273438 C 246.238281 383.503906 249.117188 390.328125 249.117188 399.738281 C 249.117188 404.210938 248.59375 408.722656 247.546875 413.289062 L 198.914062 413.289062 C 198.914062 413.480469 198.890625 413.765625 198.84375 414.144531 C 198.792969 414.527344 198.773438 414.808594 198.773438 415 C 198.773438 418.230469 199.957031 420.515625 202.339844 421.84375 C 204.710938 423.175781 209.039062 423.84375 215.316406 423.84375 C 220.734375 423.84375 229.101562 423.320312 240.414062 422.273438 L 236.421875 442.667969 C 226.246094 444.28125 216.265625 445.089844 206.472656 445.089844 C 194.683594 445.089844 185.769531 443.046875 179.730469 438.960938 C 173.691406 434.871094 170.675781 427.835938 170.675781 417.851562 C 170.675781 411.769531 171.863281 405.0625 174.242188 397.742188 C 177.378906 388.613281 182.085938 382.199219 188.363281 378.488281 C 194.636719 374.78125 203.480469 372.929688 214.886719 372.929688 "/>
<path fill-rule="nonzero" fill="rgb(11.579895%, 20.840454%, 36.49292%)" fill-opacity="1" d="M 298.605469 423.84375 C 303.167969 423.84375 309.203125 423.507812 316.71875 422.84375 L 312.722656 443.097656 C 304.453125 444.425781 296.894531 445.089844 290.046875 445.089844 C 278.445312 445.089844 269.914062 443.164062 264.449219 439.316406 C 258.980469 435.464844 256.246094 429.027344 256.246094 419.988281 C 256.246094 413.144531 257.671875 405.0625 260.523438 395.746094 C 263.566406 385.667969 269.226562 379.109375 277.496094 376.066406 C 283.105469 373.972656 290.761719 372.929688 300.457031 372.929688 C 307.589844 372.929688 315.433594 373.640625 323.992188 375.066406 L 319.996094 395.746094 C 310.871094 394.699219 305.023438 394.175781 302.453125 394.175781 C 298.082031 394.175781 294.800781 394.890625 292.613281 396.316406 C 290.617188 397.742188 289.09375 400.164062 288.050781 403.589844 C 286.71875 407.964844 286.054688 411.910156 286.054688 415.429688 C 286.054688 421.039062 290.238281 423.84375 298.605469 423.84375 "/>
<path fill-rule="nonzero" fill="rgb(11.579895%, 20.840454%, 36.49292%)" fill-opacity="1" d="M 346.519531 374.066406 L 347.234375 370.644531 C 348.945312 362.089844 352.703125 356.003906 358.503906 352.390625 C 363.066406 349.347656 370.054688 347.824219 379.464844 347.824219 C 387.070312 347.824219 394.582031 348.253906 402 349.109375 L 398.578125 366.652344 C 393.15625 366.175781 389.113281 365.9375 386.453125 365.9375 C 382.554688 365.9375 379.988281 366.417969 378.753906 367.367188 C 377.609375 368.316406 376.804688 369.980469 376.328125 372.355469 L 376.042969 374.066406 L 397.152344 374.066406 L 393.585938 392.464844 L 372.621094 392.464844 L 362.640625 443.949219 L 332.972656 443.949219 L 342.957031 392.464844 L 330.121094 392.464844 L 333.6875 374.066406 Z M 346.519531 374.066406 "/>
<path fill-rule="nonzero" fill="rgb(11.579895%, 20.840454%, 36.49292%)" fill-opacity="1" d="M 442.359375 348.96875 L 438.9375 366.652344 L 409.273438 366.652344 L 412.695312 348.96875 Z M 437.511719 374.066406 L 423.960938 443.949219 L 394.296875 443.949219 L 407.847656 374.066406 Z M 437.511719 374.066406 "/>
<path fill-rule="nonzero" fill="rgb(11.579895%, 20.840454%, 36.49292%)" fill-opacity="1" d="M 484.574219 348.96875 L 466.171875 443.949219 L 436.511719 443.949219 L 454.90625 348.96875 Z M 484.574219 348.96875 "/>
<path fill-rule="nonzero" fill="rgb(11.579895%, 20.840454%, 36.49292%)" fill-opacity="1" d="M 508.808594 357.105469 L 505.714844 357.105469 L 504.910156 361.375 L 508.351562 361.375 C 509.527344 361.375 510.324219 361.253906 510.746094 361.003906 C 511.425781 360.597656 511.78125 359.820312 511.8125 358.675781 C 511.8125 358.035156 511.5625 357.59375 511.070312 357.34375 C 510.769531 357.1875 510.011719 357.105469 508.808594 357.105469 M 515.292969 358.066406 C 515.292969 359.082031 515.070312 359.992188 514.621094 360.796875 C 514.171875 361.605469 513.496094 362.179688 512.597656 362.527344 C 513.464844 362.949219 513.902344 363.761719 513.902344 364.96875 C 513.902344 365.546875 513.832031 366.34375 513.683594 367.363281 C 513.523438 368.539062 513.445312 369.140625 513.445312 369.167969 L 509.894531 369.167969 C 509.941406 368.777344 510.035156 368.144531 510.179688 367.273438 C 510.292969 366.503906 510.351562 365.917969 510.351562 365.511719 C 510.351562 364.769531 510.121094 364.292969 509.65625 364.074219 C 509.308594 363.929688 508.464844 363.855469 507.128906 363.855469 L 504.386719 363.855469 L 503.363281 369.167969 L 499.855469 369.167969 L 502.667969 354.667969 L 509.785156 354.667969 C 511.933594 354.667969 513.355469 354.914062 514.054688 355.40625 C 514.882812 356.015625 515.292969 356.902344 515.292969 358.066406 "/>
<path fill-rule="nonzero" fill="rgb(11.579895%, 20.840454%, 36.49292%)" fill-opacity="1" d="M 505.136719 350.4375 C 500.839844 350.4375 497.191406 353.511719 496.457031 357.746094 L 495.347656 364.175781 C 494.90625 366.742188 495.613281 369.355469 497.289062 371.34375 C 498.96875 373.339844 501.421875 374.480469 504.027344 374.480469 L 510.132812 374.480469 C 514.429688 374.480469 518.078125 371.40625 518.8125 367.171875 L 519.921875 360.746094 C 520.363281 358.175781 519.65625 355.566406 517.980469 353.570312 C 516.300781 351.578125 513.84375 350.4375 511.242188 350.4375 Z M 510.132812 378.675781 L 504.027344 378.675781 C 500.183594 378.675781 496.554688 376.988281 494.078125 374.046875 C 491.605469 371.109375 490.558594 367.246094 491.210938 363.460938 L 492.324219 357.03125 C 493.40625 350.78125 498.792969 346.242188 505.136719 346.242188 L 511.242188 346.242188 C 515.085938 346.242188 518.710938 347.929688 521.1875 350.871094 C 523.664062 353.8125 524.710938 357.667969 524.054688 361.457031 L 522.945312 367.886719 C 521.867188 374.140625 516.476562 378.675781 510.132812 378.675781 "/>
</svg>
